<?xml version="1.0" encoding="utf-8"?>
<!-- Generator: Adobe Illustrator 24.1.0, SVG Export Plug-In . SVG Version: 6.00 Build 0)  -->
<svg version="1.1" id="Layer_1" xmlns="http://www.w3.org/2000/svg" xmlns:xlink="http://www.w3.org/1999/xlink" x="0px" y="0px"
	 viewBox="0 0 128 128" style="enable-background:new 0 0 128 128;" xml:space="preserve">
<style type="text/css">
	.st0{fill:#2C353A;}
	.st1{fill:#FFFFFF;}
</style>
<rect class="st0" width="128" height="128"/>
<g>
	<path class="st1" d="M53.2,22.2l12.5,84H43.4l-1.2-15h-7.8l-1.3,15H10.5l11.1-84H53.2z M41.7,76.2c-1.1-9.5-2.2-21.3-3.3-35.4
		c-2.2,16.1-3.6,27.9-4.2,35.4H41.7z"/>
	<path class="st1" d="M115.6,47.2h-20v-6.3c0-3-0.3-4.8-0.8-5.7c-0.5-0.8-1.4-1.2-2.6-1.2c-1.3,0-2.3,0.5-3,1.6c-0.7,1.1-1,2.7-1,5
		c0,2.9,0.4,5,1.1,6.4s2.8,3.2,6.1,5.2c9.7,5.9,15.8,10.7,18.3,14.5c2.5,3.8,3.8,9.8,3.8,18.2c0,6.1-0.7,10.6-2.1,13.5
		s-4.1,5.3-8.1,7.3s-8.6,2.9-13.9,2.9c-5.8,0-10.8-1.1-14.9-3.4s-6.8-5.1-8.1-8.6c-1.2-3.4-1.8-8.4-1.8-14.8v-5.6h20v10.4
		c0,3.2,0.3,5.3,0.9,6.2c0.6,0.9,1.6,1.4,3,1.4s2.5-0.6,3.2-1.7c0.7-1.2,1.1-2.9,1.1-5.2c0-5-0.7-8.3-2-9.9
		c-1.4-1.5-4.8-4.1-10.2-7.8c-5.4-3.7-9-6.3-10.7-8c-1.8-1.7-3.2-3.9-4.4-6.9c-1.2-2.9-1.7-6.7-1.7-11.2c0-6.6,0.8-11.3,2.5-14.4
		c1.6-3,4.3-5.4,7.9-7.1s8.1-2.6,13.2-2.6c5.6,0,10.5,0.9,14.4,2.8c4,1.9,6.6,4.2,7.9,7.1c1.3,2.8,1.9,7.7,1.9,14.4
		C115.6,43.7,115.6,47.2,115.6,47.2z"/>
</g>
</svg>
