<?xml version="1.0" encoding="utf-8"?>
<!-- Generator: Adobe Illustrator 24.1.0, SVG Export Plug-In . SVG Version: 6.00 Build 0)  -->
<svg version="1.1" id="Layer_1" xmlns="http://www.w3.org/2000/svg" xmlns:xlink="http://www.w3.org/1999/xlink" x="0px" y="0px"
	 viewBox="0 0 16 16" style="enable-background:new 0 0 16 16;" xml:space="preserve">
<style type="text/css">
	.st0{fill:#ffffff;}
</style>
<g>
	<path class="st0" d="M6.4,1.4L8.2,14H4.9l-0.2-2.3H3.6L3.4,14H0L1.7,1.4H6.4z M4.6,9.5C4.5,8.1,4.3,6.3,4.1,4.2
		C3.8,6.6,3.6,8.4,3.5,9.5H4.6z"/>
	<path class="st0" d="M15.7,5.2h-3V4.3c0-0.4,0-0.7-0.1-0.8s-0.2-0.2-0.4-0.2c-0.2,0-0.3,0.1-0.4,0.2c-0.1,0.2-0.2,0.4-0.2,0.7
		c0,0.4,0.1,0.7,0.2,0.9c0.1,0.2,0.4,0.5,0.9,0.8c1.5,0.9,2.4,1.6,2.7,2.1c0.4,0.6,0.6,1.4,0.6,2.7c0,0.9-0.1,1.6-0.3,2
		c-0.2,0.4-0.6,0.8-1.2,1.1c-0.6,0.3-1.3,0.4-2.1,0.4c-0.9,0-1.6-0.2-2.2-0.5c-0.6-0.3-1-0.8-1.2-1.3c-0.2-0.5-0.3-1.2-0.3-2.2V9.5
		h3V11c0,0.5,0,0.8,0.1,0.9c0.1,0.1,0.2,0.2,0.5,0.2s0.4-0.1,0.5-0.3c0.1-0.2,0.2-0.4,0.2-0.8c0-0.7-0.1-1.2-0.3-1.5
		c-0.2-0.2-0.7-0.6-1.5-1.1C10.2,8,9.7,7.6,9.4,7.4C9.2,7.1,9,6.8,8.8,6.4s-0.3-1-0.3-1.6c0-1,0.1-1.7,0.4-2.1s0.6-0.8,1.2-1
		s1.2-0.4,2-0.4c0.8,0,1.6,0.1,2.2,0.4s1,0.6,1.2,1s0.3,1.1,0.3,2.1V5.2z"/>
</g>
</svg>
